<?xml version="1.0" encoding="UTF-8" standalone="no"?>
<!-- Created with Inkscape (http://www.inkscape.org/) -->

<svg
   width="226.13605mm"
   height="334.9888mm"
   viewBox="0 0 226.13605 334.9888"
   version="1.1"
   id="svg1"
   xmlns="http://www.w3.org/2000/svg"
   xmlns:svg="http://www.w3.org/2000/svg">
  <defs
     id="defs1" />
  <g
     id="layer1"
     transform="translate(-8.9958249,61.913428)">
    <path
       fill-rule="evenodd"
       fill="#444C38"
       fill-opacity="1"
       d="m 122.0649,-61.912498 c -62.446844,0 -113.0690748,50.623266 -113.0690748,113.067001 0.00929,22.482349 6.7231018,44.310474 30.9221418,86.360627 18.769915,32.61505 55.711328,99.73963 72.997093,129.39778 4.78937,8.21759 13.51028,8.21656 18.29966,-0.003 17.28473,-29.65815 54.22614,-96.78066 72.99605,-129.39572 24.19803,-42.050146 30.91077,-63.87827 30.92112,-86.36062 0,-62.443734 -50.62223,-113.067 -113.06699,-113.067 z m 0,66.5613129 c 28.23908,0 51.13382,22.8947261 51.13382,51.1338271 0,13.561964 -5.38675,26.568923 -14.9779,36.158005 -9.58908,9.588053 -22.59602,14.977903 -36.15592,14.974783 -28.24118,0 -51.134872,-22.893682 -51.134872,-51.132788 C 70.931087,27.543541 93.82372,4.6488149 122.0649,4.6488149 Z m 0,0"
       id="path2"
       style="stroke-width:0.264583" />
  </g>
</svg>
