<?xml version="1.0" encoding="UTF-8"?>
<svg xmlns="http://www.w3.org/2000/svg" xmlns:xlink="http://www.w3.org/1999/xlink" width="5144" height="2250" viewBox="0 0 5144 2250">
<path fill-rule="evenodd" fill="rgb(100%, 100%, 100%)" fill-opacity="1" d="M 0 2250 L 5143.609375 2250 L 5143.609375 0 L 0 0 Z M 0 2250 "/>
<path fill-rule="evenodd" fill="rgb(0%, 0%, 0%)" fill-opacity="1" d="M 1028.539062 495.558594 C 792.519531 495.558594 601.191406 686.890625 601.191406 922.898438 C 601.226562 1007.871094 626.601562 1090.371094 718.0625 1249.300781 C 789.003906 1372.570312 928.625 1626.269531 993.957031 1738.363281 C 1012.058594 1769.421875 1045.019531 1769.417969 1063.121094 1738.355469 C 1128.449219 1626.261719 1268.070312 1372.570312 1339.011719 1249.300781 C 1430.46875 1090.371094 1455.839844 1007.871094 1455.878906 922.898438 C 1455.878906 686.890625 1264.550781 495.558594 1028.539062 495.558594 Z M 1028.539062 747.128906 C 1135.269531 747.128906 1221.800781 833.660156 1221.800781 940.390625 C 1221.800781 991.648438 1201.441406 1040.808594 1165.191406 1077.050781 C 1128.949219 1113.289062 1079.789062 1133.660156 1028.539062 1133.648438 C 921.800781 1133.648438 835.273438 1047.121094 835.273438 940.390625 C 835.277344 833.660156 921.800781 747.128906 1028.539062 747.128906 Z M 1028.539062 747.128906 "/>
<path fill-rule="evenodd" fill="rgb(0%, 0%, 0%)" fill-opacity="1" d="M 3311.089844 538.851562 L 3311.089844 1052.199219 L 3601.390625 1052.890625 C 3612.859375 1052.929688 3623.851562 1057.46875 3632 1065.539062 L 3775.441406 1207.839844 L 3884.179688 1111.789062 C 3886.089844 1110.128906 3888.148438 1108.640625 3890.328125 1107.351562 L 3631.269531 538.851562 Z M 3727.21875 538.851562 L 3844.71875 796.699219 L 4136.601562 538.851562 Z M 4268.460938 538.851562 L 3882.558594 879.75 L 4080.03125 1313.078125 C 4083.839844 1311.96875 4087.78125 1311.382812 4091.738281 1311.339844 L 4542.410156 1312.308594 L 4542.410156 538.851562 Z M 3311.089844 1139.480469 L 3311.089844 1770.175781 L 3511.230469 1770.175781 L 3629.441406 1346.195312 C 3631.699219 1338.066406 3636.28125 1330.769531 3642.609375 1325.1875 L 3709.878906 1265.761719 L 3583.230469 1140.128906 Z M 3927.851562 1189.660156 L 3710.070312 1382.046875 L 3601.859375 1770.175781 L 4192.390625 1770.175781 Z M 4119.03125 1398.679688 L 4288.320312 1770.175781 L 4542.410156 1770.175781 L 4542.410156 1399.589844 Z M 4119.03125 1398.679688 "/>
<path fill-rule="evenodd" fill="rgb(0%, 0%, 0%)" fill-opacity="1" d="M 2382.800781 1522.359375 C 2382.238281 1522.363281 2381.679688 1522.371094 2381.121094 1522.378906 C 2381.378906 1522.832031 2381.699219 1523.40625 2381.949219 1523.855469 C 2382.21875 1523.398438 2382.539062 1522.816406 2382.800781 1522.359375 Z M 2505.539062 1527.578125 C 2487.660156 1559.4375 2471.328125 1588.332031 2458.46875 1610.550781 C 2443.609375 1636.214844 2415.03125 1657.640625 2381.949219 1657.644531 C 2348.878906 1657.644531 2320.308594 1636.214844 2305.449219 1610.550781 C 2292.640625 1588.421875 2276.378906 1559.640625 2258.589844 1527.941406 C 2165.25 1536.292969 2083.21875 1553.777344 2024.820312 1577.761719 C 1966.410156 1601.75 1934.789062 1630.945312 1934.710938 1660.957031 C 1934.71875 1697.722656 1982 1732.976562 2066.160156 1758.972656 C 2150.320312 1784.96875 2264.46875 1799.570312 2383.488281 1799.570312 C 2502.511719 1799.570312 2616.648438 1784.964844 2700.808594 1758.972656 C 2784.96875 1732.976562 2832.25 1697.71875 2832.25 1660.957031 C 2832.25 1630.769531 2800.328125 1601.40625 2741.359375 1577.332031 C 2682.390625 1553.257812 2599.589844 1535.789062 2505.539062 1527.578125 Z M 2505.539062 1527.578125 "/>
<path fill-rule="evenodd" fill="rgb(0%, 0%, 0%)" fill-opacity="1" d="M 2381.960938 523.980469 C 2182.128906 523.980469 2020.140625 687.050781 2020.140625 888.199219 C 2020.171875 960.621094 2041.648438 1030.941406 2119.089844 1166.390625 C 2179.148438 1271.457031 2297.371094 1487.6875 2352.679688 1583.222656 C 2368 1609.695312 2395.910156 1609.691406 2411.238281 1583.21875 C 2466.558594 1487.683594 2584.761719 1271.457031 2644.820312 1166.390625 C 2722.261719 1030.941406 2743.75 960.621094 2743.769531 888.199219 C 2743.769531 687.050781 2581.78125 523.980469 2381.960938 523.980469 Z M 2381.960938 738.390625 C 2472.320312 738.390625 2545.589844 812.140625 2545.589844 903.109375 C 2545.589844 946.800781 2528.351562 988.691406 2497.660156 1019.578125 C 2466.96875 1050.46875 2425.359375 1067.828125 2381.960938 1067.828125 C 2291.589844 1067.828125 2218.328125 994.078125 2218.328125 903.109375 C 2218.328125 812.140625 2291.589844 738.390625 2381.960938 738.390625 Z M 2381.960938 738.390625 "/>
</svg>
