<?xml version="1.0" encoding="UTF-8" standalone="no"?>
<!-- Created with Inkscape (http://www.inkscape.org/) -->

<svg
   width="325.78683mm"
   height="325.78787mm"
   viewBox="0 0 325.78683 325.78787"
   version="1.1"
   id="svg1"
   xmlns="http://www.w3.org/2000/svg"
   xmlns:svg="http://www.w3.org/2000/svg">
  <defs
     id="defs1" />
  <g
     id="layer1"
     transform="translate(87.841683,58.737502)">
    <path
       fill-rule="evenodd"
       fill="#000000"
       fill-opacity="1"
       d="M -87.841685,-58.7375 V 77.085728 l 76.808753,0.182933 c 3.0344529,0.01032 5.9428058,1.211315 8.0987366,3.346582 L 35.018008,118.26564 63.788349,92.852222 c 0.505381,-0.439261 1.050052,-0.83304 1.626764,-1.174088 L -3.1274736,-58.7375 Z m 110.100797,0 L 53.347653,9.4846926 130.57498,-58.7375 Z m 143.203638,0 L 63.359433,31.458545 115.60742,146.10994 c 1.00766,-0.29351 2.05052,-0.44855 3.09747,-0.45993 l 119.24028,0.25633 V -58.7375 Z M -87.841685,100.17891 v 166.87146 h 52.953893 L -3.6111583,154.8722 c 0.5973762,-2.15078 1.8097235,-4.08141 3.48403324,-5.55832 L 17.671263,133.59081 -15.837792,100.35046 Z M 75.343206,113.45562 17.721905,164.35793 -10.908896,267.05037 H 145.33582 Z m 50.582934,55.30307 44.79108,98.29168 h 67.22795 v -98.05088 z m 0,0"
       id="path3"
       style="stroke-width:0.264583" />
  </g>
</svg>
